<svg id="Layer_1" data-name="Layer 1" xmlns="http://www.w3.org/2000/svg" viewBox="0 0 237 186"><defs><style>.cls-1{fill:#f2d381;}.cls-2{fill:#55585e;}.cls-3{fill:#99ca8c;}.cls-4{fill:#e64e4d;}.cls-5{fill:#4990e2;}.cls-6{fill:#5db65b;}</style></defs><g id="Page-1"><g id="Success"><g id="Group-8"><g id="Group-9"><g id="Welcome_Mail" data-name="Welcome Mail"><g id="Group-12"><g id="Group-15"><g id="Rectangle"><path class="cls-1" d="M199.1,165.7l7.9-1.3a2,2,0,0,1,2.3,1.7l1.3,7.9a2,2,0,0,1-1.7,2.3l-7.9,1.3a2,2,0,0,1-2.3-1.7l-1.3-7.9A2.1,2.1,0,0,1,199.1,165.7Z"/></g><g id="Path"><path class="cls-2" d="M137.2,15.5H119.6a4.29,4.29,0,0,1-4.2-3.95,4.24,4.24,0,0,1,3.25-4.38,4.7,4.7,0,0,1,4.43-3.87h0a4.79,4.79,0,0,1,1.81.36A7,7,0,0,1,137.78,7a4.14,4.14,0,0,1,3.62,4.29,3.9,3.9,0,0,1-1.08,2.88A4.31,4.31,0,0,1,137.2,15.5ZM123.1,4.3a3.68,3.68,0,0,0-3.5,3.35l0,.4-.41,0a3.23,3.23,0,0,0-2.75,3.37,3.28,3.28,0,0,0,3.2,3h17.6a3.3,3.3,0,0,0,2.39-1,2.93,2.93,0,0,0,.81-2.19A3.13,3.13,0,0,0,137.3,8h-.5V7.5a6.2,6.2,0,0,0-4.52-5.92,6.07,6.07,0,0,0-6.74,3l-.23.42-.43-.21A4,4,0,0,0,123.1,4.3Z"/></g><g id="Rectangle-2" data-name="Rectangle"><path class="cls-3" d="M18.4,170.5,27,168a2,2,0,0,1,2.5,1.4L32,178a2,2,0,0,1-1.4,2.5L22,183a2,2,0,0,1-2.5-1.4L17,173A2,2,0,0,1,18.4,170.5Z"/></g><g id="Fill-1"><path class="cls-2" d="M15,140.9,12.1,138a.57.57,0,0,1,.8-.8l2.5,2.5,6.6-6.5a.57.57,0,0,1,.8.8l-7,6.9a.6.6,0,0,1-.8,0"/></g><g id="Group"><g id="Rectangle-3" data-name="Rectangle"><path class="cls-2" d="M18.73,93.13l-16,.55A2.65,2.65,0,0,0,.23,96.37l.36,10.3a2.64,2.64,0,0,0,2.69,2.5l16-.55a2.65,2.65,0,0,0,2.51-2.69l-.36-10.3A2.64,2.64,0,0,0,18.73,93.13ZM2.78,94.88l16-.56a1.38,1.38,0,0,1,1.45,1.35l.36,10.3a1.37,1.37,0,0,1-1.35,1.45l-16,.56a1.38,1.38,0,0,1-1.45-1.36L1.43,96.33A1.37,1.37,0,0,1,2.78,94.88Z"/></g><g id="Path-2" data-name="Path"><path class="cls-2" d="M20.52,95.66l.63,1L12.84,102a3.67,3.67,0,0,1-3.5.22l-.2-.09L.57,97.36l.56-1,8.67,4.8a2.35,2.35,0,0,0,2.31,0l.19-.11Z"/></g></g><g id="Group-13"><g id="Group-9-2" data-name="Group-9"><g id="Rectangle-4" data-name="Rectangle"><path class="cls-4" d="M77.6,15.1l4.7-1.7a2.08,2.08,0,0,1,2.6,1.2l1.7,4.7a2.08,2.08,0,0,1-1.2,2.6l-4.7,1.7a2.08,2.08,0,0,1-2.6-1.2l-1.7-4.7A2.08,2.08,0,0,1,77.6,15.1Z"/></g><g id="Rectangle-5" data-name="Rectangle"><path class="cls-5" d="M180.2,19.1l6.5,2.5a2.18,2.18,0,0,1,1.2,2.6l-2.5,6.5a2.18,2.18,0,0,1-2.6,1.2l-6.5-2.5a2.18,2.18,0,0,1-1.2-2.6l2.5-6.5A2,2,0,0,1,180.2,19.1Z"/></g></g></g></g><g id="tick"><g id="Polygon"><path class="cls-2" d="M22,72.58l-2.2-1.29V68.71L22,67.42l2.2,1.29v2.58Zm-1.2-1.87,1.2.71,1.2-.71V69.29L22,68.58l-1.2.71Z"/></g><g id="Polygon-2" data-name="Polygon"><path class="cls-2" d="M207,46.58l-2.2-1.29V42.71l2.2-1.29,2.2,1.29v2.58Zm-1.2-1.87,1.2.71,1.2-.71V43.29l-1.2-.71-1.2.71Z"/></g></g><g id="Shape"><path class="cls-2" d="M235.3,93.3a1.82,1.82,0,0,1-1.4.6h-.6L231.9,96l.2.9a2.46,2.46,0,0,1,.1,1.7,2.15,2.15,0,0,1-.9,1.2l-1.4.8a2.93,2.93,0,0,1-1,.3,2,2,0,0,1-1.8-1l-2.7-.5c-.9,1-1.3,1.4-1.8,1.5a2.26,2.26,0,0,1-1.6-.2l-1.4-.8a2.12,2.12,0,0,1-1-1.3,1.84,1.84,0,0,1,.2-1.6l.3-.5L218,94.2c-1.5-.2-2-.4-2.4-.8a2.2,2.2,0,0,1-.6-1.5V90.2a2,2,0,0,1,.6-1.5,1.82,1.82,0,0,1,1.4-.6h.6l1.5-2.3c-.6-1.2-.7-1.8-.5-2.3a2,2,0,0,1,.9-1.3l1.4-.8a1.6,1.6,0,0,1,1.5-.2,3.07,3.07,0,0,1,1.4.9l2.7.5c.9-1,1.4-1.4,1.9-1.5a1.94,1.94,0,0,1,1.5.2l1.2.8a2.12,2.12,0,0,1,1,1.3,1.84,1.84,0,0,1-.2,1.6l-.1,1,1.1,1.9a3.84,3.84,0,0,1,2.3.8,2,2,0,0,1,.7,1.6v1.5A2,2,0,0,1,235.3,93.3Zm-11-9.4a1.93,1.93,0,0,1-1-.3,1.85,1.85,0,0,1-.7-.8,1,1,0,0,0-.5-.4.64.64,0,0,0-.6,0l-1.4.8a2.09,2.09,0,0,0-.4.6.82.82,0,0,0,.1.7l.5.3a1.91,1.91,0,0,1,0,1.8l-1.1,1.8a2.4,2.4,0,0,1-1.6.9H217a.91.91,0,0,0-.7.3,1.07,1.07,0,0,0-.2.6v1.5a.87.87,0,0,0,.4.7,2,2,0,0,0,.9.2,1.89,1.89,0,0,1,1.6.9l1.1,1.8a1.71,1.71,0,0,1,0,1.7l-.4.5v.8a1,1,0,0,0,.4.5l1.4.6a.85.85,0,0,0,.7,0,1,1,0,0,0,.5-.6,2.6,2.6,0,0,1,1.6-.9h1.8a1.93,1.93,0,0,1,1,.3,8.41,8.41,0,0,1,1.2,1.3c.2,0,.5,0,.6-.1l1.4-.8a1.61,1.61,0,0,0,.4-.7,1.83,1.83,0,0,0-.2-.9,1.71,1.71,0,0,1,0-1.7l1.1-1.8a2.6,2.6,0,0,1,1.6-.9h.5a1,1,0,0,0,1-1V90.2a.6.6,0,0,0-.3-.6,1.44,1.44,0,0,0-1.1-.3,1.89,1.89,0,0,1-1.6-.9l-1-1.8a1.71,1.71,0,0,1,0-1.7l.3-.5a.85.85,0,0,0,0-.7,1,1,0,0,0-.4-.5l-1.4-.8a.85.85,0,0,0-.7,0,1,1,0,0,0-.5.6,2.24,2.24,0,0,1-1.5.8l-2.2.1Zm4.6,6.2a3.93,3.93,0,0,1-.3,2.8,3.6,3.6,0,0,1-3.2,1.8,3.06,3.06,0,0,1-1.7-.4,3.4,3.4,0,0,1-1.8-2.3,3.81,3.81,0,0,1,.2-2.8,4.14,4.14,0,0,1,2.4-1.7,3.93,3.93,0,0,1,2.8.3A3.76,3.76,0,0,1,228.9,90.1Zm-1.4,2.2a2.85,2.85,0,0,0,.2-2,2,2,0,0,0-1.2-1.3,1.8,1.8,0,0,0-1.1-.3h-.7a2.21,2.21,0,0,0-1.4,1.1,1.83,1.83,0,0,0-.2,1.9,3.07,3.07,0,0,0,1,1.5,3.19,3.19,0,0,0,1.9.3A3,3,0,0,0,227.5,92.3Z"/><path class="cls-2" d="M222,101.11a2.17,2.17,0,0,1-1.1-.28l-1.39-.8a2.26,2.26,0,0,1-1.08-1.4,2,2,0,0,1,.22-1.71l.26-.43-1-2.15a3.88,3.88,0,0,1-2.41-.83,2.39,2.39,0,0,1-.64-1.61V90.2a2.23,2.23,0,0,1,.64-1.61A2,2,0,0,1,217,88h.52l1.41-2.16c-.57-1.14-.69-1.79-.47-2.35a2.08,2.08,0,0,1,1-1.37l1.41-.8a1.75,1.75,0,0,1,1.63-.21,3.07,3.07,0,0,1,1.41.9l2.58.48c.89-1,1.4-1.38,1.92-1.49a2.14,2.14,0,0,1,1.62.23l1.19.8a2.24,2.24,0,0,1,1.07,1.39,2,2,0,0,1-.2,1.68L232,86l1,1.79a3.85,3.85,0,0,1,2.3.82,2.13,2.13,0,0,1,.76,1.72v1.5a2.23,2.23,0,0,1-.64,1.61h0a2,2,0,0,1-1.51.64h-.52l-1.32,2,.19.84a2.56,2.56,0,0,1,.09,1.78,2.2,2.2,0,0,1-1,1.27l-1.42.81-.28.11a1.88,1.88,0,0,1-.79.21,2.15,2.15,0,0,1-1.89-1l-2.55-.48c-.9,1-1.29,1.38-1.83,1.49A3.71,3.71,0,0,1,222,101.11Zm-5-12.86a1.65,1.65,0,0,0-1.29.56,1.85,1.85,0,0,0-.56,1.39v1.7a2,2,0,0,0,.56,1.39c.35.36.78.56,2.31.76h.08l1.17,2.45-.34.57a1.69,1.69,0,0,0-.19,1.46,2,2,0,0,0,.94,1.23l1.39.8a2.14,2.14,0,0,0,1.5.18c.46-.09.85-.49,1.72-1.45l.05-.06,2.86.53,0,.06a1.87,1.87,0,0,0,1.67.92,1.71,1.71,0,0,0,.68-.18l.27-.11,1.38-.79a1.92,1.92,0,0,0,.82-1.1A2.26,2.26,0,0,0,232,97l-.22-1,1.48-2.22h.68a1.65,1.65,0,0,0,1.29-.56h0a1.85,1.85,0,0,0,.56-1.39V90.3a1.85,1.85,0,0,0-.64-1.48,3.69,3.69,0,0,0-2.22-.77h-.08l-1.16-2,.12-1.11a1.69,1.69,0,0,0,.19-1.46,2,2,0,0,0-.94-1.23l-1.2-.81a1.77,1.77,0,0,0-1.39-.17c-.46.09-.93.47-1.82,1.45l-.05.06-2.83-.52,0,0a2.7,2.7,0,0,0-1.32-.86,1.47,1.47,0,0,0-1.38.17l-1.42.81a1.79,1.79,0,0,0-.82,1.2c-.17.43-.15.94.48,2.2l0,.08-1.59,2.44Zm11.3,11.4h-.07l0-.05-.51-.59a3.56,3.56,0,0,0-.66-.68,1.75,1.75,0,0,0-.92-.28h-1.8a2.33,2.33,0,0,0-1.47.83,1.17,1.17,0,0,1-.56.65,1,1,0,0,1-.84,0l-1.39-.6a1.12,1.12,0,0,1-.47-.57l0-.07v-.85l.43-.54a1.56,1.56,0,0,0,0-1.54l-1.1-1.79a1.73,1.73,0,0,0-1.47-.83,2.07,2.07,0,0,1-1-.22,1,1,0,0,1-.48-.83V90.2a1.21,1.21,0,0,1,.24-.71,1.07,1.07,0,0,1,.81-.34h.6a2.21,2.21,0,0,0,1.49-.86l1.08-1.77a1.73,1.73,0,0,0,0-1.61l-.5-.3v0a1,1,0,0,1-.11-.82,2.39,2.39,0,0,1,.43-.66l0,0,1.4-.8a.75.75,0,0,1,.74,0,1.09,1.09,0,0,1,.56.46,1.73,1.73,0,0,0,1.57,1l2.19-.1a2.11,2.11,0,0,0,1.38-.72,1.12,1.12,0,0,1,.56-.66,1,1,0,0,1,.84,0l1.4.8a1.09,1.09,0,0,1,.46.56,1,1,0,0,1,0,.82l-.31.53a1.57,1.57,0,0,0,0,1.55l1,1.8a1.74,1.74,0,0,0,1.47.82,1.61,1.61,0,0,1,1.19.33.74.74,0,0,1,.36.72v1.4a1.08,1.08,0,0,1-.34.81,1.07,1.07,0,0,1-.81.34h-.5a2.34,2.34,0,0,0-1.49.86l-1.08,1.77a1.54,1.54,0,0,0,0,1.53,2,2,0,0,1,.23,1v0a1.86,1.86,0,0,1-.43.76l0,0-1.38.79A1.14,1.14,0,0,1,228.3,99.65Zm-4-1.9h1.8a2,2,0,0,1,1.08.33,3.36,3.36,0,0,1,.73.74l.46.53a1,1,0,0,0,.42-.06l0,0,1.38-.79a1.49,1.49,0,0,0,.34-.6,1.7,1.7,0,0,0-.18-.81,1.84,1.84,0,0,1,0-1.84l1.1-1.81a2.63,2.63,0,0,1,1.73-1h.5a.89.89,0,0,0,.85-.85V90.2c0-.36-.16-.44-.22-.47l0,0c-.18-.19-.47-.26-1-.26a2.05,2.05,0,0,1-1.73-1l-1-1.81a1.86,1.86,0,0,1,0-1.86l.29-.49a.68.68,0,0,0,0-.55.86.86,0,0,0-.34-.44l-1.4-.8a.68.68,0,0,0-.56,0,.9.9,0,0,0-.43.52l0,0a2.36,2.36,0,0,1-1.62.86l-2.2.1a2.13,2.13,0,0,1-1.08-.32,2,2,0,0,1-.75-.86.92.92,0,0,0-.44-.34.53.53,0,0,0-.46,0l-1.38.79a2.26,2.26,0,0,0-.36.55.64.64,0,0,0,.09.52l.49.3,0,0a2,2,0,0,1,0,2l-1.1,1.8a2.56,2.56,0,0,1-1.73,1H217a.74.74,0,0,0-.59.26.94.94,0,0,0-.16.49v1.5a.72.72,0,0,0,.33.57,1.84,1.84,0,0,0,.82.18,2.05,2.05,0,0,1,1.73,1l1.1,1.8a1.88,1.88,0,0,1,0,1.87l-.37.46v.71a.85.85,0,0,0,.32.41l1.39.59a.67.67,0,0,0,.57,0,.9.9,0,0,0,.43-.52l0-.06A2.65,2.65,0,0,1,224.3,97.75Zm1.1-2.9a3.3,3.3,0,0,1-1.79-.43A3.53,3.53,0,0,1,221.75,92a4,4,0,0,1,.22-2.9,4.23,4.23,0,0,1,2.49-1.77,4,4,0,0,1,2.9.3,4,4,0,0,1,1.69,2.41h0a4,4,0,0,1-.32,2.9A3.74,3.74,0,0,1,225.4,94.85Zm0-7.34a2.93,2.93,0,0,0-.88.13,4.07,4.07,0,0,0-2.33,1.64A3.67,3.67,0,0,0,222,92a3.3,3.3,0,0,0,1.73,2.21,2.84,2.84,0,0,0,1.63.38,3.46,3.46,0,0,0,3.07-1.73,3.72,3.72,0,0,0,.28-2.69h0a3.53,3.53,0,0,0-1.53-2.2A4.54,4.54,0,0,0,225.43,87.51Zm.1,6.18a3.31,3.31,0,0,1-1.5-.36A3.13,3.13,0,0,1,223,91.75a2,2,0,0,1,.22-2,2.33,2.33,0,0,1,1.47-1.15h.75a2,2,0,0,1,1.17.31,2.11,2.11,0,0,1,1.27,1.39,3,3,0,0,1-.2,2.11h0a3.08,3.08,0,0,1-1.56,1.26l0,0A3.89,3.89,0,0,1,225.53,93.69Zm-.81-4.84a2,2,0,0,0-1.29,1,1.7,1.7,0,0,0-.19,1.77,2.88,2.88,0,0,0,.95,1.44,3.06,3.06,0,0,0,1.76.28,2.86,2.86,0,0,0,1.41-1.12,2.7,2.7,0,0,0,.2-1.89,1.8,1.8,0,0,0-1.11-1.21l0,0a1.71,1.71,0,0,0-1-.27Z"/></g><g id="Group-11"><g id="Path-5"><path class="cls-2" d="M225.5,129.1H218a.6.6,0,0,1,0-1.2h7.5a.6.6,0,0,1,0,1.2Z"/></g><g id="Path-5-2" data-name="Path-5"><path class="cls-2" d="M228.5,132.1H221a.6.6,0,0,1,0-1.2h7.5a.6.6,0,0,1,0,1.2Z"/></g></g><g id="Group-11-2" data-name="Group-11"><g id="Path-5-3" data-name="Path-5"><path class="cls-2" d="M32.5,35.1H25a.6.6,0,0,1,0-1.2h7.5a.6.6,0,0,1,0,1.2Z"/></g><g id="Path-5-4" data-name="Path-5"><path class="cls-2" d="M35.5,38.1H28a.6.6,0,0,1,0-1.2h7.5a.6.6,0,0,1,0,1.2Z"/></g></g></g></g></g><g id="Group-11-3" data-name="Group-11"><g id="Group-10"><g id="Path-3" data-name="Path"><path class="cls-2" d="M114,186A71,71,0,1,1,167.86,68.75a1,1,0,0,1-1.52,1.3,69.08,69.08,0,1,0,9.07,13.51,1,1,0,1,1,1.78-.92A71,71,0,0,1,114,186Z"/></g><g id="Shape-2" data-name="Shape"><path class="cls-2" d="M94.6,175.8a1.12,1.12,0,0,1-.31-.05,63.94,63.94,0,0,1-36.57-30.68,1,1,0,1,1,1.76-.94,62,62,0,0,0,35.43,29.72,1,1,0,0,1-.31,2ZM162.7,74.1a1,1,0,0,1-.76-.34,63.15,63.15,0,0,0-38.49-21.17,1,1,0,0,1,.3-2,65.28,65.28,0,0,1,39.71,21.83,1,1,0,0,1-.1,1.42A1,1,0,0,1,162.7,74.1Z"/></g><g id="Path-29"><path class="cls-6" d="M105.5,144.91l-40.21-40.2a1,1,0,0,1,1.42-1.42l38.79,38.8,86.79-86.8a1,1,0,1,1,1.42,1.42Z"/></g></g></g></g></g></g></svg>