<?xml version="1.0" standalone="no"?>
<!DOCTYPE svg PUBLIC "-//W3C//DTD SVG 20010904//EN"
 "http://www.w3.org/TR/2001/REC-SVG-20010904/DTD/svg10.dtd">
<svg version="1.0" xmlns="http://www.w3.org/2000/svg"
 width="84.000000pt" height="84.000000pt" viewBox="0 0 84.000000 84.000000"
 preserveAspectRatio="xMidYMid meet">
<metadata>
Created by potrace 1.11, written by Peter Selinger 2001-2013
</metadata>
<g transform="translate(0.000000,84.000000) scale(0.100000,-0.100000)"
fill="#000000" stroke="none">
<path d="M282 782 c2 -4 70 -88 152 -185 l149 -177 128 0 c71 0 129 2 129 5 0
3 -68 87 -152 185 l-151 180 -129 0 c-72 0 -128 -4 -126 -8z"/>
<path d="M198 707 c-27 -40 -48 -76 -48 -80 0 -4 52 -7 115 -7 63 0 115 3 115
6 0 9 -122 154 -129 154 -3 0 -27 -33 -53 -73z"/>
<path d="M160 599 c0 -6 32 -48 72 -95 l72 -84 128 0 c105 0 127 3 121 13 -4
8 -39 50 -78 95 l-70 82 -122 0 c-81 0 -123 -4 -123 -11z"/>
<path d="M0 402 c0 -15 120 -177 128 -173 8 5 152 171 152 177 0 2 -63 4 -140
4 -77 0 -140 -4 -140 -8z"/>
<path d="M233 320 c-40 -47 -73 -88 -73 -92 0 -5 54 -8 119 -8 l120 0 76 90
c42 50 75 90 73 90 -2 1 -57 2 -122 3 l-119 2 -74 -85z"/>
<path d="M494 297 c-127 -149 -204 -243 -204 -251 0 -3 55 -6 123 -6 l123 0
144 174 c79 96 146 178 147 182 2 5 -52 9 -119 9 l-122 0 -92 -108z"/>
</g>
</svg>
